<svg xmlns="http://www.w3.org/2000/svg" viewBox="0 0 512 512">
  <defs>
    <linearGradient id="bg" x1="0" x2="0" y1="0" y2="1">
      <stop offset="0%" stop-color="#10223d" />
      <stop offset="100%" stop-color="#09131f" />
    </linearGradient>
    <linearGradient id="glow" x1="0" x2="1" y1="0" y2="1">
      <stop offset="0%" stop-color="#86f6ff" />
      <stop offset="100%" stop-color="#9f8dff" />
    </linearGradient>
  </defs>

  <rect width="512" height="512" rx="118" fill="url(#bg)" />
  <circle cx="134" cy="128" r="34" fill="#88f3ff" opacity="0.95" />
  <circle cx="134" cy="128" r="64" fill="#88f3ff" opacity="0.12" />

  <g fill="#d8f8ff">
    <rect x="92" y="250" width="62" height="144" rx="10" />
    <rect x="166" y="214" width="66" height="180" rx="10" />
    <rect x="240" y="144" width="72" height="250" rx="12" />
    <rect x="320" y="198" width="58" height="196" rx="10" />
    <rect x="388" y="272" width="36" height="122" rx="8" />
  </g>

  <g fill="#10223d">
    <rect x="110" y="272" width="10" height="16" rx="2" />
    <rect x="126" y="272" width="10" height="16" rx="2" />
    <rect x="110" y="298" width="10" height="16" rx="2" />
    <rect x="126" y="298" width="10" height="16" rx="2" />
    <rect x="110" y="324" width="10" height="16" rx="2" />
    <rect x="126" y="324" width="10" height="16" rx="2" />

    <rect x="184" y="238" width="10" height="16" rx="2" />
    <rect x="200" y="238" width="10" height="16" rx="2" />
    <rect x="184" y="264" width="10" height="16" rx="2" />
    <rect x="200" y="264" width="10" height="16" rx="2" />
    <rect x="184" y="290" width="10" height="16" rx="2" />
    <rect x="200" y="290" width="10" height="16" rx="2" />
    <rect x="184" y="316" width="10" height="16" rx="2" />
    <rect x="200" y="316" width="10" height="16" rx="2" />

    <rect x="258" y="176" width="12" height="18" rx="2" />
    <rect x="278" y="176" width="12" height="18" rx="2" />
    <rect x="258" y="204" width="12" height="18" rx="2" />
    <rect x="278" y="204" width="12" height="18" rx="2" />
    <rect x="258" y="232" width="12" height="18" rx="2" />
    <rect x="278" y="232" width="12" height="18" rx="2" />
    <rect x="258" y="260" width="12" height="18" rx="2" />
    <rect x="278" y="260" width="12" height="18" rx="2" />
    <rect x="258" y="288" width="12" height="18" rx="2" />
    <rect x="278" y="288" width="12" height="18" rx="2" />
    <rect x="258" y="316" width="12" height="18" rx="2" />
    <rect x="278" y="316" width="12" height="18" rx="2" />

    <rect x="336" y="222" width="10" height="16" rx="2" />
    <rect x="352" y="222" width="10" height="16" rx="2" />
    <rect x="336" y="248" width="10" height="16" rx="2" />
    <rect x="352" y="248" width="10" height="16" rx="2" />
    <rect x="336" y="274" width="10" height="16" rx="2" />
    <rect x="352" y="274" width="10" height="16" rx="2" />
    <rect x="336" y="300" width="10" height="16" rx="2" />
    <rect x="352" y="300" width="10" height="16" rx="2" />
    <rect x="336" y="326" width="10" height="16" rx="2" />
    <rect x="352" y="326" width="10" height="16" rx="2" />
  </g>

  <path d="M244 112L276 112L260 78Z" fill="#88f3ff" />
  <rect x="255" y="84" width="10" height="58" rx="5" fill="#88f3ff" />

  <path d="M74 406H438" stroke="url(#glow)" stroke-width="18" stroke-linecap="round" />
  <path d="M116 438H396" stroke="#9f8dff" stroke-opacity="0.7" stroke-width="8" stroke-linecap="round" />
</svg>
